<?xml version="1.0" encoding="utf-8"?>
<!-- Generator: Adobe Illustrator 16.0.0, SVG Export Plug-In . SVG Version: 6.00 Build 0)  -->
<!DOCTYPE svg PUBLIC "-//W3C//DTD SVG 1.1//EN" "http://www.w3.org/Graphics/SVG/1.1/DTD/svg11.dtd">
<svg version="1.1" xmlns="http://www.w3.org/2000/svg" xmlns:xlink="http://www.w3.org/1999/xlink" x="0px" y="0px" width="1400px"
	 height="980px" viewBox="0 0 1400 980" enable-background="new 0 0 1400 980" xml:space="preserve">
<g id="Layer_1">
	<g>
		<linearGradient id="SVGID_1_" gradientUnits="userSpaceOnUse" x1="700.0005" y1="980" x2="700.0004" y2="4.882813e-004">
			<stop  offset="0" style="stop-color:#FFFFFF"/>
			<stop  offset="0.3386" style="stop-color:#FDFDFD;stop-opacity:0.7291"/>
			<stop  offset="0.4828" style="stop-color:#F6F6F6;stop-opacity:0.6138"/>
			<stop  offset="0.59" style="stop-color:#E9E9E9;stop-opacity:0.528"/>
			<stop  offset="0.679" style="stop-color:#D8D8D8;stop-opacity:0.4568"/>
			<stop  offset="0.7566" style="stop-color:#C0C0C0;stop-opacity:0.3947"/>
			<stop  offset="0.8263" style="stop-color:#A4A4A4;stop-opacity:0.339"/>
			<stop  offset="0.8901" style="stop-color:#828282;stop-opacity:0.2879"/>
			<stop  offset="0.9475" style="stop-color:#5C5C5C;stop-opacity:0.242"/>
			<stop  offset="1" style="stop-color:#323232;stop-opacity:0.2"/>
		</linearGradient>
		<rect fill-rule="evenodd" clip-rule="evenodd" fill="url(#SVGID_1_)" width="1400" height="980"/>
		<polygon fill-rule="evenodd" clip-rule="evenodd" fill="#FFFFFF" points="0,66.3 57.9,78.6 97.4,66.9 134.5,44.7 169.6,48.4 
			196.2,72.5 212.2,72.5 238.2,94 278.9,102.7 317.8,92.8 341.3,103.9 364.1,128.6 334.5,143.4 306.7,137.9 266,175.5 224.6,176.8 
			185.7,142.2 161.6,141 145.6,149 159.1,155.2 124.6,184.8 68.4,173.7 34.4,192.2 0,182.9 		"/>
		<polygon fill-rule="evenodd" clip-rule="evenodd" fill="#FFFFFF" points="416.6,194.7 449.3,173.1 479.6,177.4 525.9,145.3 
			578.3,171.9 608.6,171.9 633.3,190.4 588.2,204.6 571,195.3 525.2,241 470.9,218.2 449.9,220 		"/>
	</g>
</g>
<g id="Layer_2">
	<g>
		<linearGradient id="SVGID_2_" gradientUnits="userSpaceOnUse" x1="698.8477" y1="1074.8428" x2="707.6681" y2="-683.333">
			<stop  offset="0" style="stop-color:#FFFFFF"/>
			<stop  offset="1" style="stop-color:#323232"/>
		</linearGradient>
		<polygon fill-rule="evenodd" clip-rule="evenodd" fill="url(#SVGID_2_)" points="0,710.2 362.6,606.4 550.3,525 700,490 
			881.2,374.3 992.3,285.4 1056.5,300.3 1133.1,241 1197.2,147.1 1261.5,164.4 1305.9,159.5 1367.6,226.2 1400,243.5 1400,980 
			0,980 		"/>
		<polygon fill-rule="evenodd" clip-rule="evenodd" fill="#E6E6E6" points="992.3,285.4 936.7,329.9 990.1,347.2 		"/>
		<polygon fill-rule="evenodd" clip-rule="evenodd" fill="#FFFFFF" points="936.7,329.9 881.2,374.3 990.1,347.2 		"/>
		<polygon fill-rule="evenodd" clip-rule="evenodd" fill="#E6E6E6" points="881.2,374.3 939.5,444.7 990.1,347.2 		"/>
		<polygon fill-rule="evenodd" clip-rule="evenodd" fill="#E6E6E6" points="881.2,374.3 790.6,432.2 875.3,418.8 		"/>
		<polygon fill-rule="evenodd" clip-rule="evenodd" fill="#E6E6E6" points="700,490 680.8,521.9 740.1,486.7 		"/>
		<polygon fill-rule="evenodd" clip-rule="evenodd" fill="#E6E6E6" points="740.1,486.7 775.3,446.6 767.3,469.4 		"/>
		<polygon fill-rule="evenodd" clip-rule="evenodd" fill="#E6E6E6" points="990.1,347.2 1052.5,341.6 1066.1,379.9 		"/>
		<polygon fill-rule="evenodd" clip-rule="evenodd" fill="#E6E6E6" points="1197.2,147.1 1133.1,241 1196.9,255.2 		"/>
		<polygon fill-rule="evenodd" clip-rule="evenodd" fill="#E6E6E6" points="1197.2,147.1 1273.5,200.9 1261.5,164.4 		"/>
		<polygon fill-rule="evenodd" clip-rule="evenodd" fill="#E6E6E6" points="1273.5,200.9 1227.8,252.1 1283.4,242.2 		"/>
		<polygon fill-rule="evenodd" clip-rule="evenodd" fill="#E6E6E6" points="1196.9,255.2 1193.9,294.7 1240.2,293.5 		"/>
		<polygon fill-rule="evenodd" clip-rule="evenodd" fill="#E6E6E6" points="1316.7,247.8 1351.3,241 1356.2,265.7 		"/>
	</g>
</g>
<g id="Layer_3">
	<g>
		<linearGradient id="SVGID_3_" gradientUnits="userSpaceOnUse" x1="700.0005" y1="1567.0576" x2="700.0004" y2="318.769">
			<stop  offset="0" style="stop-color:#FFFFFF"/>
			<stop  offset="0.3386" style="stop-color:#FDFDFD"/>
			<stop  offset="0.4828" style="stop-color:#F6F6F6"/>
			<stop  offset="0.59" style="stop-color:#E9E9E9"/>
			<stop  offset="0.679" style="stop-color:#D8D8D8"/>
			<stop  offset="0.7566" style="stop-color:#C0C0C0"/>
			<stop  offset="0.8263" style="stop-color:#A4A4A4"/>
			<stop  offset="0.8901" style="stop-color:#828282"/>
			<stop  offset="0.9475" style="stop-color:#5C5C5C"/>
			<stop  offset="1" style="stop-color:#323232"/>
		</linearGradient>
		<polygon fill-rule="evenodd" clip-rule="evenodd" fill="url(#SVGID_3_)" points="0,980 0,473.1 93.4,460.8 224.3,391.6 
			305.8,433.6 352.7,416.3 446.5,505.2 503.3,594.1 619.4,574.4 683.6,618.8 728.1,616.4 860.6,694.8 1079.9,725.3 1400,747.2 
			1400,980 		"/>
		<polygon fill-rule="evenodd" clip-rule="evenodd" fill="#E6E6E6" points="93.4,460.8 224.3,391.6 205.8,441 		"/>
		<polygon fill-rule="evenodd" clip-rule="evenodd" fill="#FFFFFF" points="224.3,391.6 205.8,441 248.4,471.3 		"/>
		<polygon fill-rule="evenodd" clip-rule="evenodd" fill="#FFFFFF" points="274.1,417.3 314.4,563.3 248.4,471.3 		"/>
		<polygon fill-rule="evenodd" clip-rule="evenodd" fill="#E6E6E6" points="205.8,441 163.2,498.4 248.4,471.3 		"/>
		<polygon fill-rule="evenodd" clip-rule="evenodd" fill="#FFFFFF" points="205.8,441 93.4,460.8 123.3,475.9 		"/>
		<polygon fill-rule="evenodd" clip-rule="evenodd" fill="#E6E6E6" points="93.4,460.8 0,473.1 123.3,475.9 		"/>
		<polygon fill-rule="evenodd" clip-rule="evenodd" fill="#FFFFFF" points="305.8,433.6 355.5,460.8 352.7,416.3 		"/>
		<polygon fill-rule="evenodd" clip-rule="evenodd" fill="#E6E6E6" points="352.7,416.3 355.5,460.8 399.6,460.8 		"/>
		<polygon fill-rule="evenodd" clip-rule="evenodd" fill="#E6E6E6" points="305.8,433.6 334.5,482.4 355.5,460.8 		"/>
		<polygon fill-rule="evenodd" clip-rule="evenodd" fill="#E6E6E6" points="248.4,471.3 227.7,528 275.4,508.9 		"/>
		<polygon fill-rule="evenodd" clip-rule="evenodd" fill="#E6E6E6" points="227.7,528 248.7,543.5 225.8,573.8 		"/>
		<polygon fill-rule="evenodd" clip-rule="evenodd" fill="#E6E6E6" points="446.5,505.2 393.1,494.7 427.1,531.2 		"/>
		<polygon fill-rule="evenodd" clip-rule="evenodd" fill="#E6E6E6" points="421.5,554.6 431.4,580.5 446.2,580.5 		"/>
	</g>
</g>
<g id="Layer_4">
	<g>
		<linearGradient id="SVGID_4_" gradientUnits="userSpaceOnUse" x1="700" y1="996.8701" x2="699.9999" y2="267.5752">
			<stop  offset="0" style="stop-color:#FFFFFF"/>
			<stop  offset="1" style="stop-color:#323232"/>
		</linearGradient>
		<polygon fill-rule="evenodd" clip-rule="evenodd" fill="url(#SVGID_4_)" points="1400,980 0,980 0,683.3 10,681.8 24.6,687.6 
			35.1,687.6 49,696.6 68.7,697.5 74,694.4 91.6,696.6 102.1,704 118.7,704 127.7,710.8 166.4,713.2 172.1,708 191.2,711.7 
			200.2,718.2 211.3,718.5 224,726 253,736.1 353.3,749.1 376.6,741 424.3,747.8 461.3,742.3 506.4,752.8 540.4,750.9 560.1,742.3 
			695.3,754.6 720.7,742.3 764.5,734.9 798.4,736.1 809.6,733 815.1,725 835.5,722.5 850.2,716.9 897.2,718.2 937.3,699.7 
			940.4,682.4 980.6,667.6 1023.2,679.3 1049.7,655.2 1092.9,656.5 1111.4,625.6 1207.7,613.2 1250.3,629.9 1280,591 1350.8,548 
			1400,545.3 		"/>
	</g>
</g>
<g id="Layer_5">
	<g>
		<path fill-rule="evenodd" clip-rule="evenodd" fill="#B3B3B3" d="M0,731c533.6-22.2,1134.3,33.1,1400,54.4V980H0V731z"/>
		<path fill-rule="evenodd" clip-rule="evenodd" fill="#CCCCCC" d="M343.7,726.3c14.2,0.2,28.3,0.3,42.5,0.6
			c-37.4,46.4-53,166.6-58.2,253.2c-34.2,0-68.3,0-102.5,0C276.2,815.8,311.7,755.3,343.7,726.3L343.7,726.3z"/>
	</g>
</g>
<g id="Layer_6">
	<g>
		<polygon fill-rule="evenodd" clip-rule="evenodd" fill="#808080" points="117.7,724.5 96.1,665.4 108.9,661.5 145.7,726.6 		"/>
		<polygon fill-rule="evenodd" clip-rule="evenodd" fill="#666666" points="108.9,661.5 114.9,662.4 133.2,689.5 132.3,702.9 		"/>
		<polygon fill-rule="evenodd" clip-rule="evenodd" fill="#808080" points="132.3,702.9 166.3,664.5 160.7,663.4 133.2,689.5 		"/>
		<polygon fill-rule="evenodd" clip-rule="evenodd" fill="#4D4D4D" points="132.3,702.9 144.3,700.2 172.1,665 166.3,664.5 		"/>
		<polygon fill-rule="evenodd" clip-rule="evenodd" fill="#666666" points="144.3,700.2 165.6,718 145.7,726.6 132.3,702.9 		"/>
		<polygon fill-rule="evenodd" clip-rule="evenodd" fill="#999999" points="117.7,724.5 96.6,731.9 131.7,725.5 		"/>
		<polygon fill-rule="evenodd" clip-rule="evenodd" fill="#999999" points="131.7,725.5 129.7,737 151,740.2 151.5,733.3 
			145.7,726.6 		"/>
		<polygon fill-rule="evenodd" clip-rule="evenodd" fill="#666666" points="131.7,725.5 129.7,737 100.3,739.8 96.6,731.9 		"/>
		<polygon fill-rule="evenodd" clip-rule="evenodd" fill="#808080" points="96.6,731.9 79.3,742.3 100.3,739.8 		"/>
		<polygon fill-rule="evenodd" clip-rule="evenodd" fill="#B3B3B3" points="151,740.2 143.6,747.4 162.8,739.8 164,732.4 
			151.5,733.3 		"/>
		<polygon fill-rule="evenodd" clip-rule="evenodd" fill="#808080" points="151.5,733.3 145.7,726.6 165.6,718 160.3,726.1 
			164,732.4 		"/>
		<polygon fill-rule="evenodd" clip-rule="evenodd" fill="#666666" points="143.6,747.4 161.4,743.9 162.8,739.8 		"/>
		<polygon fill-rule="evenodd" clip-rule="evenodd" fill="#4D4D4D" points="163.4,736.1 180.2,732.8 181.1,728.2 160.3,726.1 
			164,732.4 		"/>
		<polygon fill-rule="evenodd" clip-rule="evenodd" fill="#666666" points="165.6,718 186.4,726.8 181.1,728.2 160.3,726.1 		"/>
		<polygon fill-rule="evenodd" clip-rule="evenodd" fill="#4D4D4D" points="181.1,728.2 180.2,732.8 211.7,734 196.6,725.6 
			186.4,726.8 		"/>
		<polygon fill-rule="evenodd" clip-rule="evenodd" fill="#B3B3B3" points="108.9,661.5 96.1,665.4 60.5,654.1 91.5,640.7 		"/>
		<polygon fill-rule="evenodd" clip-rule="evenodd" fill="#CCCCCC" points="91.5,640.7 141.8,646.2 114.9,662.4 108.9,661.5 		"/>
		<polygon fill-rule="evenodd" clip-rule="evenodd" fill="#999999" points="114.9,662.4 160.7,663.4 141.8,646.2 		"/>
		<polygon fill-rule="evenodd" clip-rule="evenodd" fill="#999999" points="60.5,654.1 59.6,673.6 96.1,665.4 		"/>
		<polygon fill-rule="evenodd" clip-rule="evenodd" fill="#E6E6E6" points="59.6,673.6 35,648.3 40.1,613.1 60.5,654.1 		"/>
		<polygon fill-rule="evenodd" clip-rule="evenodd" fill="#CCCCCC" points="40.1,613.1 68.1,591.6 60.5,654.1 		"/>
		<polygon fill-rule="evenodd" clip-rule="evenodd" fill="#E6E6E6" points="68.1,591.6 91.5,640.7 60.5,654.1 		"/>
		<polygon fill-rule="evenodd" clip-rule="evenodd" fill="#FFFFFF" points="68.1,591.6 118.8,582.8 91.5,640.7 		"/>
		<polygon fill-rule="evenodd" clip-rule="evenodd" fill="#E6E6E6" points="118.8,582.8 141.8,646.2 91.5,640.7 		"/>
		<polygon fill-rule="evenodd" clip-rule="evenodd" fill="#CCCCCC" points="118.8,582.8 166.3,605.5 141.8,646.2 		"/>
		<polygon fill-rule="evenodd" clip-rule="evenodd" fill="#B3B3B3" points="166.3,605.5 160.7,663.4 141.8,646.2 		"/>
		<polygon fill-rule="evenodd" clip-rule="evenodd" fill="#B3B3B3" points="160.7,663.4 187.1,647.1 172.1,665 166.3,664.5 		"/>
		<polygon fill-rule="evenodd" clip-rule="evenodd" fill="#CCCCCC" points="166.3,605.5 187.1,647.1 160.7,663.4 		"/>
		<polygon fill-rule="evenodd" clip-rule="evenodd" fill="#FFFFFF" points="40.1,613.1 69,563.9 68.1,591.6 		"/>
		<polygon fill-rule="evenodd" clip-rule="evenodd" fill="#E6E6E6" points="69,563.9 121.1,545.6 68.1,591.6 		"/>
		<polygon fill-rule="evenodd" clip-rule="evenodd" fill="#CCCCCC" points="68.1,591.6 118.8,582.8 121.1,545.6 		"/>
		<polygon fill-rule="evenodd" clip-rule="evenodd" fill="#E6E6E6" points="121.1,545.6 166.3,605.5 118.8,582.8 		"/>
		<polygon fill-rule="evenodd" clip-rule="evenodd" fill="#CCCCCC" points="121.1,545.6 171.1,578 166.3,605.5 		"/>
		<polygon fill-rule="evenodd" clip-rule="evenodd" fill="#B3B3B3" points="171.1,578 187.1,647.1 166.3,605.5 		"/>
		<polygon fill-rule="evenodd" clip-rule="evenodd" fill="#E6E6E6" points="176.6,601.4 205.8,633.4 187.1,647.1 		"/>
		<polygon fill-rule="evenodd" clip-rule="evenodd" fill="#CCCCCC" points="187.1,647.1 206.3,654 205.8,633.4 		"/>
		<polygon fill-rule="evenodd" clip-rule="evenodd" fill="#CCCCCC" points="172.1,665 189.4,674.1 187.1,647.1 		"/>
		<polygon fill-rule="evenodd" clip-rule="evenodd" fill="#E6E6E6" points="189.4,674.1 206.3,654 187.1,647.1 		"/>
		<polygon fill-rule="evenodd" clip-rule="evenodd" fill="#B3B3B3" points="189.4,674.1 200.3,668.3 206.3,654 		"/>
	</g>
	<g>
		<polygon fill-rule="evenodd" clip-rule="evenodd" fill="#CCCCCC" points="253.3,743.6 247.1,728.4 250.6,727.8 		"/>
		<polygon fill-rule="evenodd" clip-rule="evenodd" fill="#999999" points="253.3,743.6 258.9,743.8 250.6,727.8 		"/>
		<polygon fill-rule="evenodd" clip-rule="evenodd" fill="#E6E6E6" points="250.6,727.8 248.9,712.5 247.1,728.4 		"/>
		<polygon fill-rule="evenodd" clip-rule="evenodd" fill="#999999" points="250.6,727.8 248.9,712.5 252.2,713 		"/>
		<polygon fill-rule="evenodd" clip-rule="evenodd" fill="#B3B3B3" points="248.9,712.5 244.3,698.7 252.2,713 		"/>
		<polygon fill-rule="evenodd" clip-rule="evenodd" fill="#B3B3B3" points="258.9,743.8 255.8,723.9 255.5,737.2 		"/>
		<polygon fill-rule="evenodd" clip-rule="evenodd" fill="#808080" points="255.8,723.9 258.2,709.5 257,732.1 		"/>
		<polygon fill-rule="evenodd" clip-rule="evenodd" fill="#999999" points="258.9,743.8 261.1,729.5 259.3,730.6 257.5,735 		"/>
		<polygon fill-rule="evenodd" clip-rule="evenodd" fill="#B3B3B3" points="259.3,730.6 259,721.5 261.1,729.5 		"/>
		<polygon fill-rule="evenodd" clip-rule="evenodd" fill="#666666" points="259,721.5 260.9,723.6 262.4,730.5 261.1,729.5 		"/>
		<polygon fill-rule="evenodd" clip-rule="evenodd" fill="#808080" points="261.1,729.5 262.4,730.5 261,740.6 258.9,743.8 		"/>
		<polygon fill-rule="evenodd" clip-rule="evenodd" fill="#808080" points="259,721.5 263,710.5 260.9,723.6 		"/>
		<polygon fill-rule="evenodd" clip-rule="evenodd" fill="#808080" points="258.9,743.8 261,740.6 264.3,743.9 		"/>
		<polygon fill-rule="evenodd" clip-rule="evenodd" fill="#CCCCCC" points="261,740.6 264.9,730.6 264.3,743.9 		"/>
		<polygon fill-rule="evenodd" clip-rule="evenodd" fill="#999999" points="264.3,743.9 267.8,731.6 264.9,730.6 		"/>
		<polygon fill-rule="evenodd" clip-rule="evenodd" fill="#B3B3B3" points="264.9,730.6 265.7,716.8 267.8,731.6 		"/>
		<polygon fill-rule="evenodd" clip-rule="evenodd" fill="#808080" points="265.7,716.8 268.1,718.3 267.8,731.6 		"/>
		<polygon fill-rule="evenodd" clip-rule="evenodd" fill="#666666" points="265.7,716.8 267.3,702.9 268.1,718.3 		"/>
		<polygon fill-rule="evenodd" clip-rule="evenodd" fill="#808080" points="253.3,743.6 250.6,736.8 250.9,743.8 		"/>
		<polygon fill-rule="evenodd" clip-rule="evenodd" fill="#CCCCCC" points="250.9,743.8 244.1,730 250.7,739.2 		"/>
		<polygon fill-rule="evenodd" clip-rule="evenodd" fill="#B3B3B3" points="244.1,730 243.1,719.4 248.6,736.4 		"/>
		<polygon fill-rule="evenodd" clip-rule="evenodd" fill="#E6E6E6" points="243.5,724 239.7,714.4 243.1,719.4 		"/>
		<polygon fill-rule="evenodd" clip-rule="evenodd" fill="#999999" points="250.9,743.8 242.5,735.7 243,735.6 248.7,739.3 		"/>
		<polygon fill-rule="evenodd" clip-rule="evenodd" fill="#CCCCCC" points="240.9,734.2 235.6,738 243,735.6 		"/>
		<polygon fill-rule="evenodd" clip-rule="evenodd" fill="#808080" points="264.3,743.9 266.2,737 274.3,728.5 		"/>
		<polygon fill-rule="evenodd" clip-rule="evenodd" fill="#666666" points="274.3,728.5 282.2,731.3 272.8,730.8 		"/>
	</g>
</g>
<g id="Layer_7">
	<g>
		<path fill-rule="evenodd" clip-rule="evenodd" fill="#999999" d="M0,789.1c461.9-34.8,1093.9-27.9,1400-3.7V980H0V789.1z"/>
		<path fill-rule="evenodd" clip-rule="evenodd" fill="#B3B3B3" d="M342.9,771.3c17.9-0.6,35.8-1.1,53.8-1.6
			c80.7,15.3,90.1,78.9,59.6,210.3c-40.7,0-81.5,0-122.3,0C407.2,813.5,383,783.5,342.9,771.3L342.9,771.3z"/>
	</g>
</g>
<g id="Layer_8">
	<g>
		<polygon fill-rule="evenodd" clip-rule="evenodd" fill="#808080" points="773.4,790.8 813,773 844.1,787.5 		"/>
		<polygon fill-rule="evenodd" clip-rule="evenodd" fill="#999999" points="813,773 844.1,749.2 862.6,763 844.1,787.5 		"/>
		<polygon fill-rule="evenodd" clip-rule="evenodd" fill="#808080" points="844.1,749.2 851.3,665.9 878.4,673.8 862.6,763 		"/>
		<polygon fill-rule="evenodd" clip-rule="evenodd" fill="#999999" points="878.4,673.8 899.6,759.1 862.6,763 		"/>
		<polygon fill-rule="evenodd" clip-rule="evenodd" fill="#808080" points="878.4,673.8 900.9,669.2 899.6,759.1 		"/>
		<polygon fill-rule="evenodd" clip-rule="evenodd" fill="#808080" points="862.6,763 844.1,787.5 864.6,792.1 		"/>
		<polygon fill-rule="evenodd" clip-rule="evenodd" fill="#999999" points="862.6,763 864.6,792.1 876.5,777.9 		"/>
		<polygon fill-rule="evenodd" clip-rule="evenodd" fill="#CCCCCC" points="864.6,792.1 856,808 877.1,784.9 876.5,777.9 		"/>
		<polygon fill-rule="evenodd" clip-rule="evenodd" fill="#999999" points="842.8,673.1 835.1,751.2 844.1,749.2 851.3,665.9 		"/>
		<polygon fill-rule="evenodd" clip-rule="evenodd" fill="#B3B3B3" points="835.1,751.2 806.7,768 813,773 844.1,749.2 		"/>
		<polygon fill-rule="evenodd" clip-rule="evenodd" fill="#CCCCCC" points="806.7,768 769.6,790.6 773.4,790.8 813,773 		"/>
		<polygon fill-rule="evenodd" clip-rule="evenodd" fill="#B3B3B3" points="862.6,763 899.6,759.1 902.7,770 876.5,777.9 		"/>
		<polygon fill-rule="evenodd" clip-rule="evenodd" fill="#999999" points="876.5,777.9 877.1,784.9 903.1,782.9 902.7,770 		"/>
		<polygon fill-rule="evenodd" clip-rule="evenodd" fill="#B3B3B3" points="856,808 903.1,782.9 877.1,784.9 		"/>
		<polygon fill-rule="evenodd" clip-rule="evenodd" fill="#666666" points="856,808 899.4,794.5 903.1,782.9 		"/>
		<polygon fill-rule="evenodd" clip-rule="evenodd" fill="#666666" points="901.9,786.8 935.1,782.9 987.7,789.5 949.3,773 
			934.5,774.6 899.6,759.1 902.7,770 903.1,782.9 		"/>
		<polygon fill-rule="evenodd" clip-rule="evenodd" fill="#808080" points="949.3,773 924.2,770 934.5,774.6 		"/>
		<polygon fill-rule="evenodd" clip-rule="evenodd" fill="#666666" points="900.9,669.2 907.2,762.4 899.6,759.1 		"/>
		<polygon fill-rule="evenodd" clip-rule="evenodd" fill="#CCCCCC" points="851.3,665.9 819.1,627.2 876,632.5 878.4,673.8 		"/>
		<polygon fill-rule="evenodd" clip-rule="evenodd" fill="#B3B3B3" points="819.1,627.2 825.7,682.1 842.8,673.1 851.3,665.9 		"/>
		<polygon fill-rule="evenodd" clip-rule="evenodd" fill="#E6E6E6" points="819.1,627.2 774.2,633.5 825.7,682.1 		"/>
		<polygon fill-rule="evenodd" clip-rule="evenodd" fill="#CCCCCC" points="774.2,633.5 774.5,662.2 825.7,682.1 		"/>
		<polygon fill-rule="evenodd" clip-rule="evenodd" fill="#999999" points="878.4,673.8 876,632.5 923.6,615.6 900.9,669.2 		"/>
		<polygon fill-rule="evenodd" clip-rule="evenodd" fill="#B3B3B3" points="923.6,615.6 927.5,665.2 900.9,669.2 		"/>
		<polygon fill-rule="evenodd" clip-rule="evenodd" fill="#999999" points="923.6,615.6 954,631.5 927.5,665.2 		"/>
		<polygon fill-rule="evenodd" clip-rule="evenodd" fill="#666666" points="927.5,665.2 954.3,651.3 954,631.5 		"/>
		<polygon fill-rule="evenodd" clip-rule="evenodd" fill="#FFFFFF" points="774.5,662.2 747.4,617.9 774.2,633.5 		"/>
		<polygon fill-rule="evenodd" clip-rule="evenodd" fill="#E6E6E6" points="747.4,617.9 769.2,557.1 774.2,633.5 		"/>
		<polygon fill-rule="evenodd" clip-rule="evenodd" fill="#FFFFFF" points="769.2,557.1 819.1,627.2 774.2,633.5 		"/>
		<polygon fill-rule="evenodd" clip-rule="evenodd" fill="#CCCCCC" points="769.2,557.1 822.8,539 819.1,627.2 		"/>
		<polygon fill-rule="evenodd" clip-rule="evenodd" fill="#E6E6E6" points="822.8,539 876,632.5 819.1,627.2 		"/>
		<polygon fill-rule="evenodd" clip-rule="evenodd" fill="#CCCCCC" points="822.8,539 891.8,528 876,632.5 		"/>
		<polygon fill-rule="evenodd" clip-rule="evenodd" fill="#B3B3B3" points="891.8,528 923.6,615.6 876,632.5 		"/>
		<polygon fill-rule="evenodd" clip-rule="evenodd" fill="#CCCCCC" points="891.8,528 937.8,546.9 923.6,615.6 		"/>
		<polygon fill-rule="evenodd" clip-rule="evenodd" fill="#B3B3B3" points="937.8,546.9 954,631.5 923.6,615.6 		"/>
		<polygon fill-rule="evenodd" clip-rule="evenodd" fill="#999999" points="937.8,546.9 964.9,550.5 954,631.5 		"/>
		<polygon fill-rule="evenodd" clip-rule="evenodd" fill="#808080" points="964.9,550.5 977.8,612 954,631.5 		"/>
		<polygon fill-rule="evenodd" clip-rule="evenodd" fill="#808080" points="977.8,612 954.3,651.3 954,631.5 		"/>
		<polygon fill-rule="evenodd" clip-rule="evenodd" fill="#FFFFFF" points="747.4,617.9 762.3,537.6 769.2,557.1 		"/>
		<polygon fill-rule="evenodd" clip-rule="evenodd" fill="#E6E6E6" points="762.3,537.6 772.8,518.8 786.1,517.1 769.2,557.1 		"/>
		<polygon fill-rule="evenodd" clip-rule="evenodd" fill="#CCCCCC" points="772.8,518.8 756.6,496.6 768.9,498 786.1,517.1 		"/>
		<polygon fill-rule="evenodd" clip-rule="evenodd" fill="#FFFFFF" points="756.6,496.6 775.2,469.9 768.9,498 		"/>
		<polygon fill-rule="evenodd" clip-rule="evenodd" fill="#E6E6E6" points="768.9,498 791.7,498.3 775.2,469.9 		"/>
		<polygon fill-rule="evenodd" clip-rule="evenodd" fill="#B3B3B3" points="768.9,498 786.1,517.1 813.8,524.7 791.7,498.3 		"/>
		<polygon fill-rule="evenodd" clip-rule="evenodd" fill="#CCCCCC" points="786.1,517.1 769.2,557.1 822.8,539 813.8,524.7 		"/>
		<polygon fill-rule="evenodd" clip-rule="evenodd" fill="#999999" points="791.7,498.3 810.2,481.4 813.8,524.7 		"/>
		<polygon fill-rule="evenodd" clip-rule="evenodd" fill="#B3B3B3" points="813.8,524.7 849.5,503.6 810.2,481.4 		"/>
		<polygon fill-rule="evenodd" clip-rule="evenodd" fill="#E6E6E6" points="822.8,539 849.5,503.6 813.8,524.7 		"/>
		<polygon fill-rule="evenodd" clip-rule="evenodd" fill="#CCCCCC" points="775.2,469.9 791.7,498.3 810.2,481.4 		"/>
		<polygon fill-rule="evenodd" clip-rule="evenodd" fill="#E6E6E6" points="775.2,469.9 817.2,460.9 810.2,481.4 		"/>
		<polygon fill-rule="evenodd" clip-rule="evenodd" fill="#B3B3B3" points="810.2,481.4 850.3,480.7 817.2,460.9 		"/>
		<polygon fill-rule="evenodd" clip-rule="evenodd" fill="#999999" points="810.2,481.4 849.5,503.6 850.3,480.7 		"/>
		<polygon fill-rule="evenodd" clip-rule="evenodd" fill="#FFFFFF" points="849.5,503.6 891.8,528 822.8,539 		"/>
		<polygon fill-rule="evenodd" clip-rule="evenodd" fill="#CCCCCC" points="850.3,480.7 884,481.7 849.5,503.6 		"/>
		<polygon fill-rule="evenodd" clip-rule="evenodd" fill="#E6E6E6" points="850.3,480.7 884.3,467.8 884,481.7 		"/>
		<polygon fill-rule="evenodd" clip-rule="evenodd" fill="#FFFFFF" points="841.6,475.5 884.3,467.8 850.3,480.7 		"/>
		<polygon fill-rule="evenodd" clip-rule="evenodd" fill="#CCCCCC" points="884.3,467.8 917.7,493.6 884,481.7 		"/>
		<polygon fill-rule="evenodd" clip-rule="evenodd" fill="#B3B3B3" points="884,481.7 891.8,528 849.5,503.6 		"/>
		<polygon fill-rule="evenodd" clip-rule="evenodd" fill="#999999" points="884,481.7 891.8,528 917.7,493.6 		"/>
		<polygon fill-rule="evenodd" clip-rule="evenodd" fill="#E6E6E6" points="917.7,493.6 937.8,546.9 891.8,528 		"/>
		<polygon fill-rule="evenodd" clip-rule="evenodd" fill="#CCCCCC" points="917.7,493.6 945.5,499.5 937.8,546.9 		"/>
		<polygon fill-rule="evenodd" clip-rule="evenodd" fill="#B3B3B3" points="945.5,499.5 964.9,550.5 937.8,546.9 		"/>
		<polygon fill-rule="evenodd" clip-rule="evenodd" fill="#E6E6E6" points="945.5,499.5 917.7,493.6 910.1,487.7 		"/>
	</g>
</g>
<g id="Layer_9">
	<g>
		<path fill-rule="evenodd" clip-rule="evenodd" fill="#808080" d="M0,873c468.1-63.2,935-104.8,1400-107.4V980H0V873z"/>
		<path fill-rule="evenodd" clip-rule="evenodd" fill="#B3B3B3" d="M411.8,823.4c64.3-6.7,128.7-13,193-18.7
			c124.1-2.8,406.2,58,441.7,175.3c-196.7,0-393.5,0-590.2,0C487.1,919.6,456.9,850.7,411.8,823.4L411.8,823.4z"/>
	</g>
</g>
<g id="Layer_10">
	<g>
		<polygon fill-rule="evenodd" clip-rule="evenodd" fill="#CCCCCC" points="83.8,922.3 64,873.5 75.1,871.7 		"/>
		<polygon fill-rule="evenodd" clip-rule="evenodd" fill="#999999" points="83.8,922.3 101.6,922.9 75.1,871.7 		"/>
		<polygon fill-rule="evenodd" clip-rule="evenodd" fill="#E6E6E6" points="75.1,871.7 69.5,822.9 64,873.5 		"/>
		<polygon fill-rule="evenodd" clip-rule="evenodd" fill="#999999" points="75.1,871.7 69.5,822.9 80,824.4 		"/>
		<polygon fill-rule="evenodd" clip-rule="evenodd" fill="#B3B3B3" points="69.5,822.9 55,778.7 80,824.4 		"/>
		<polygon fill-rule="evenodd" clip-rule="evenodd" fill="#B3B3B3" points="101.6,922.9 91.5,859.3 90.7,901.8 		"/>
		<polygon fill-rule="evenodd" clip-rule="evenodd" fill="#808080" points="91.5,859.3 99.2,813.3 95.7,885.4 		"/>
		<polygon fill-rule="evenodd" clip-rule="evenodd" fill="#999999" points="101.6,922.9 108.4,877.2 102.9,880.6 97.1,894.7 		"/>
		<polygon fill-rule="evenodd" clip-rule="evenodd" fill="#B3B3B3" points="102.9,880.6 102,851.6 108.4,877.2 		"/>
		<polygon fill-rule="evenodd" clip-rule="evenodd" fill="#666666" points="102,851.6 107.8,858.4 112.8,880.3 108.4,877.2 		"/>
		<polygon fill-rule="evenodd" clip-rule="evenodd" fill="#808080" points="108.4,877.2 112.8,880.3 108.1,912.4 101.6,922.9 		"/>
		<polygon fill-rule="evenodd" clip-rule="evenodd" fill="#808080" points="102,851.6 114.6,816.4 107.8,858.4 		"/>
		<polygon fill-rule="evenodd" clip-rule="evenodd" fill="#808080" points="101.6,922.9 108.1,912.4 118.6,923.2 		"/>
		<polygon fill-rule="evenodd" clip-rule="evenodd" fill="#CCCCCC" points="108.1,912.4 120.5,880.6 118.6,923.2 		"/>
		<polygon fill-rule="evenodd" clip-rule="evenodd" fill="#999999" points="118.6,923.2 129.7,884 120.5,880.6 		"/>
		<polygon fill-rule="evenodd" clip-rule="evenodd" fill="#B3B3B3" points="120.5,880.6 123.3,836.5 129.7,884 		"/>
		<polygon fill-rule="evenodd" clip-rule="evenodd" fill="#808080" points="123.3,836.5 131,841.4 129.7,884 		"/>
		<polygon fill-rule="evenodd" clip-rule="evenodd" fill="#666666" points="123.3,836.5 128.2,792.3 131,841.4 		"/>
		<polygon fill-rule="evenodd" clip-rule="evenodd" fill="#808080" points="83.8,922.3 74.9,900.4 76,922.6 		"/>
		<polygon fill-rule="evenodd" clip-rule="evenodd" fill="#CCCCCC" points="76,922.6 54.1,878.8 75.3,908.1 		"/>
		<polygon fill-rule="evenodd" clip-rule="evenodd" fill="#B3B3B3" points="54.1,878.8 51,844.8 68.8,899.1 		"/>
		<polygon fill-rule="evenodd" clip-rule="evenodd" fill="#E6E6E6" points="52.4,859.7 40.2,829.1 51,844.8 		"/>
		<polygon fill-rule="evenodd" clip-rule="evenodd" fill="#999999" points="76,922.6 49.2,897 50.8,896.5 68.9,908.3 		"/>
		<polygon fill-rule="evenodd" clip-rule="evenodd" fill="#CCCCCC" points="44,892.1 27,904.1 50.8,896.5 		"/>
		<polygon fill-rule="evenodd" clip-rule="evenodd" fill="#808080" points="118.6,923.2 124.9,901.2 150.8,873.9 		"/>
		<polygon fill-rule="evenodd" clip-rule="evenodd" fill="#666666" points="150.8,873.9 175.8,882.8 146,881.3 		"/>
	</g>
	<g>
		<polygon fill-rule="evenodd" clip-rule="evenodd" fill="#808080" points="1095.5,636 1095.5,733.1 1132.7,748.4 1124.1,635.4 		
			"/>
		<polygon fill-rule="evenodd" clip-rule="evenodd" fill="#666666" points="1124.1,635.4 1173.9,625.4 1132.7,748.4 		"/>
		<polygon fill-rule="evenodd" clip-rule="evenodd" fill="#808080" points="1132.7,748.4 1196.6,737.1 1173.9,625.4 		"/>
		<polygon fill-rule="evenodd" clip-rule="evenodd" fill="#808080" points="1179.9,654.6 1227.1,613.4 1246.4,614.1 1193.9,664 		
			"/>
		<polygon fill-rule="evenodd" clip-rule="evenodd" fill="#808080" points="1179.9,654.6 1193.9,664 1207.2,684.6 1192.3,715.8 		
			"/>
		<polygon fill-rule="evenodd" clip-rule="evenodd" fill="#999999" points="1207.2,684.6 1193.9,664 1246.4,614.1 1274.6,602.1 		
			"/>
		<polygon fill-rule="evenodd" clip-rule="evenodd" fill="#999999" points="1095.5,733.1 1038.6,761.7 1088.5,768.4 1132.7,748.4 		
			"/>
		<polygon fill-rule="evenodd" clip-rule="evenodd" fill="#B3B3B3" points="1038.6,761.7 1007.7,799.6 1088.5,768.4 		"/>
		<polygon fill-rule="evenodd" clip-rule="evenodd" fill="#666666" points="1007.7,799.6 1124.1,789.7 1132.7,748.4 1088.5,768.4 		
			"/>
		<polygon fill-rule="evenodd" clip-rule="evenodd" fill="#B3B3B3" points="1132.7,748.4 1166,788.3 1134,817 1144,795.6 
			1124.1,789.7 		"/>
		<polygon fill-rule="evenodd" clip-rule="evenodd" fill="#999999" points="1166,788.3 1206.5,793 1180.3,740 1132.7,748.4 		"/>
		<polygon fill-rule="evenodd" clip-rule="evenodd" fill="#CCCCCC" points="1134,817 1170,840.2 1145,807.1 		"/>
		<polygon fill-rule="evenodd" clip-rule="evenodd" fill="#808080" points="1145,807.1 1170,840.2 1169.3,813.6 1206.5,793 
			1166,788.3 		"/>
		<polygon fill-rule="evenodd" clip-rule="evenodd" fill="#666666" points="1169.5,822.1 1202.5,811 1206.5,793 1169.3,813.6 		"/>
		<polygon fill-rule="evenodd" clip-rule="evenodd" fill="#666666" points="1196.6,737.1 1237.3,767 1269.9,763.1 1305.8,775.7 
			1199.7,779.2 1180.3,740 		"/>
		<polygon fill-rule="evenodd" clip-rule="evenodd" fill="#B3B3B3" points="1227.5,759.9 1250.6,758.4 1269.9,763.1 1237.3,767 		
			"/>
		<polygon fill-rule="evenodd" clip-rule="evenodd" fill="#CCCCCC" points="1030.4,642 1095.5,636 1124.1,635.4 1033.1,513 		"/>
		<polygon fill-rule="evenodd" clip-rule="evenodd" fill="#CCCCCC" points="1033.1,513 1069.7,409.9 1156.8,498.4 		"/>
		<polygon fill-rule="evenodd" clip-rule="evenodd" fill="#E6E6E6" points="1069.7,409.9 1009.8,475.8 1033.1,513 		"/>
		<polygon fill-rule="evenodd" clip-rule="evenodd" fill="#CCCCCC" points="1069.7,409.9 1001.9,411.9 1009.8,475.8 		"/>
		<polygon fill-rule="evenodd" clip-rule="evenodd" fill="#E6E6E6" points="1001.9,411.9 972.6,471.8 1009.8,475.8 		"/>
		<polygon fill-rule="evenodd" clip-rule="evenodd" fill="#B3B3B3" points="1009.8,475.8 950,575.5 1030.4,642 1033.1,513 		"/>
		<polygon fill-rule="evenodd" clip-rule="evenodd" fill="#CCCCCC" points="972.6,471.8 945.3,521 950,575.5 1009.8,475.8 		"/>
		<polygon fill-rule="evenodd" clip-rule="evenodd" fill="#999999" points="950,575.5 990.5,626.7 1030.4,642 		"/>
		<polygon fill-rule="evenodd" clip-rule="evenodd" fill="#B3B3B3" points="1033.1,513 1156.8,498.4 1124.1,635.4 		"/>
		<polygon fill-rule="evenodd" clip-rule="evenodd" fill="#E6E6E6" points="1069.7,409.9 1109,357.4 1156.8,498.4 		"/>
		<polygon fill-rule="evenodd" clip-rule="evenodd" fill="#FFFFFF" points="1109,357.4 1081,358 1044.4,410.7 1069.7,409.9 		"/>
		<polygon fill-rule="evenodd" clip-rule="evenodd" fill="#E6E6E6" points="1109,357.4 1188.1,336.8 1153.5,336.8 1081,358 		"/>
		<polygon fill-rule="evenodd" clip-rule="evenodd" fill="#CCCCCC" points="1188.1,336.8 1245.3,417.9 1109,357.4 		"/>
		<polygon fill-rule="evenodd" clip-rule="evenodd" fill="#E6E6E6" points="1081,358 1028.5,411.1 1044.4,410.7 		"/>
		<polygon fill-rule="evenodd" clip-rule="evenodd" fill="#CCCCCC" points="1109,357.4 1156.8,498.4 1281.9,509.7 1240.6,430.5 		
			"/>
		<polygon fill-rule="evenodd" clip-rule="evenodd" fill="#B3B3B3" points="1109,357.4 1245.3,417.9 1240.6,430.5 		"/>
		<polygon fill-rule="evenodd" clip-rule="evenodd" fill="#999999" points="1245.3,417.9 1295.8,446.5 1281.9,509.7 1240.6,430.5 		
			"/>
		<polygon fill-rule="evenodd" clip-rule="evenodd" fill="#808080" points="1223.1,386.4 1295.8,446.5 1245.3,417.9 		"/>
		<polygon fill-rule="evenodd" clip-rule="evenodd" fill="#999999" points="1124.1,635.4 1173.9,625.4 1156.8,498.4 		"/>
		<polygon fill-rule="evenodd" clip-rule="evenodd" fill="#CCCCCC" points="1173.9,625.4 1227.1,613.4 1156.8,498.4 		"/>
		<polygon fill-rule="evenodd" clip-rule="evenodd" fill="#B3B3B3" points="1156.8,498.4 1227.1,613.4 1281.9,509.7 		"/>
		<polygon fill-rule="evenodd" clip-rule="evenodd" fill="#999999" points="1227.1,613.4 1246.4,614.1 1309.1,587.5 1281.9,509.7 		
			"/>
		<polygon fill-rule="evenodd" clip-rule="evenodd" fill="#808080" points="1281.9,509.7 1309.1,587.5 1331.1,517.7 1295.8,446.5 		
			"/>
	</g>
	<g>
		<polygon fill-rule="evenodd" clip-rule="evenodd" fill="#CCCCCC" points="1043,850 1023.2,801.3 1034.3,799.4 		"/>
		<polygon fill-rule="evenodd" clip-rule="evenodd" fill="#999999" points="1043,850 1060.9,850.7 1034.3,799.4 		"/>
		<polygon fill-rule="evenodd" clip-rule="evenodd" fill="#E6E6E6" points="1034.3,799.4 1028.8,750.6 1023.2,801.3 		"/>
		<polygon fill-rule="evenodd" clip-rule="evenodd" fill="#999999" points="1034.3,799.4 1028.8,750.6 1039.3,752.2 		"/>
		<polygon fill-rule="evenodd" clip-rule="evenodd" fill="#B3B3B3" points="1028.8,750.6 1014.2,706.5 1039.3,752.2 		"/>
		<polygon fill-rule="evenodd" clip-rule="evenodd" fill="#B3B3B3" points="1060.9,850.7 1050.7,787.1 1049.9,829.6 		"/>
		<polygon fill-rule="evenodd" clip-rule="evenodd" fill="#808080" points="1050.7,787.1 1058.4,741.1 1054.9,813.2 		"/>
		<polygon fill-rule="evenodd" clip-rule="evenodd" fill="#999999" points="1060.9,850.7 1067.7,805 1062.1,808.4 1056.3,822.5 		
			"/>
		<polygon fill-rule="evenodd" clip-rule="evenodd" fill="#B3B3B3" points="1062.1,808.4 1061.2,779.3 1067.7,805 		"/>
		<polygon fill-rule="evenodd" clip-rule="evenodd" fill="#666666" points="1061.2,779.3 1067.1,786.2 1072,808.1 1067.7,805 		"/>
		<polygon fill-rule="evenodd" clip-rule="evenodd" fill="#808080" points="1067.7,805 1072,808.1 1067.3,840.2 1060.9,850.7 		"/>
		<polygon fill-rule="evenodd" clip-rule="evenodd" fill="#808080" points="1061.2,779.3 1073.8,744.2 1067.1,786.2 		"/>
		<polygon fill-rule="evenodd" clip-rule="evenodd" fill="#808080" points="1060.9,850.7 1067.3,840.2 1077.8,851 		"/>
		<polygon fill-rule="evenodd" clip-rule="evenodd" fill="#CCCCCC" points="1067.3,840.2 1079.7,808.4 1077.8,851 		"/>
		<polygon fill-rule="evenodd" clip-rule="evenodd" fill="#999999" points="1077.8,851 1089,811.8 1079.7,808.4 		"/>
		<polygon fill-rule="evenodd" clip-rule="evenodd" fill="#B3B3B3" points="1079.7,808.4 1082.5,764.2 1089,811.8 		"/>
		<polygon fill-rule="evenodd" clip-rule="evenodd" fill="#808080" points="1082.5,764.2 1090.2,769.1 1089,811.8 		"/>
		<polygon fill-rule="evenodd" clip-rule="evenodd" fill="#666666" points="1082.5,764.2 1087.4,720.1 1090.2,769.1 		"/>
		<polygon fill-rule="evenodd" clip-rule="evenodd" fill="#808080" points="1043,850 1034.1,828.2 1035.2,850.3 		"/>
		<polygon fill-rule="evenodd" clip-rule="evenodd" fill="#CCCCCC" points="1035.2,850.3 1013.3,806.5 1034.5,835.9 		"/>
		<polygon fill-rule="evenodd" clip-rule="evenodd" fill="#B3B3B3" points="1013.3,806.5 1010.3,772.5 1028,826.8 		"/>
		<polygon fill-rule="evenodd" clip-rule="evenodd" fill="#E6E6E6" points="1011.6,787.4 999.4,756.8 1010.3,772.5 		"/>
		<polygon fill-rule="evenodd" clip-rule="evenodd" fill="#999999" points="1035.2,850.3 1008.4,824.8 1010,824.3 1028.1,836.1 		
			"/>
		<polygon fill-rule="evenodd" clip-rule="evenodd" fill="#CCCCCC" points="1003.2,819.9 986.2,831.9 1010,824.3 		"/>
		<polygon fill-rule="evenodd" clip-rule="evenodd" fill="#808080" points="1077.8,851 1084.1,828.9 1110,801.7 		"/>
		<polygon fill-rule="evenodd" clip-rule="evenodd" fill="#666666" points="1110,801.7 1135,810.6 1105.2,809 		"/>
	</g>
	<g>
		<polygon fill-rule="evenodd" clip-rule="evenodd" fill="#CCCCCC" points="1291.9,954.1 1272.1,905.4 1283.3,903.5 		"/>
		<polygon fill-rule="evenodd" clip-rule="evenodd" fill="#999999" points="1291.9,954.1 1309.8,954.8 1283.3,903.5 		"/>
		<polygon fill-rule="evenodd" clip-rule="evenodd" fill="#E6E6E6" points="1283.3,903.5 1277.7,854.7 1272.1,905.4 		"/>
		<polygon fill-rule="evenodd" clip-rule="evenodd" fill="#999999" points="1283.3,903.5 1277.7,854.7 1288.2,856.3 		"/>
		<polygon fill-rule="evenodd" clip-rule="evenodd" fill="#B3B3B3" points="1277.7,854.7 1263.2,810.6 1288.2,856.3 		"/>
		<polygon fill-rule="evenodd" clip-rule="evenodd" fill="#B3B3B3" points="1309.8,954.8 1299.6,891.2 1298.9,933.7 		"/>
		<polygon fill-rule="evenodd" clip-rule="evenodd" fill="#808080" points="1299.6,891.2 1307.3,845.2 1303.8,917.3 		"/>
		<polygon fill-rule="evenodd" clip-rule="evenodd" fill="#999999" points="1309.8,954.8 1316.6,909.1 1311,912.5 1305.3,926.6 		
			"/>
		<polygon fill-rule="evenodd" clip-rule="evenodd" fill="#B3B3B3" points="1311,912.5 1310.1,883.4 1316.6,909.1 		"/>
		<polygon fill-rule="evenodd" clip-rule="evenodd" fill="#666666" points="1310.1,883.4 1316,890.2 1320.9,912.2 1316.6,909.1 		
			"/>
		<polygon fill-rule="evenodd" clip-rule="evenodd" fill="#808080" points="1316.6,909.1 1320.9,912.2 1316.3,944.3 1309.8,954.8 		
			"/>
		<polygon fill-rule="evenodd" clip-rule="evenodd" fill="#808080" points="1310.1,883.4 1322.8,848.2 1316,890.2 		"/>
		<polygon fill-rule="evenodd" clip-rule="evenodd" fill="#808080" points="1309.8,954.8 1316.3,944.3 1326.8,955.1 		"/>
		<polygon fill-rule="evenodd" clip-rule="evenodd" fill="#CCCCCC" points="1316.3,944.3 1328.6,912.5 1326.8,955.1 		"/>
		<polygon fill-rule="evenodd" clip-rule="evenodd" fill="#999999" points="1326.8,955.1 1337.9,915.9 1328.6,912.5 		"/>
		<polygon fill-rule="evenodd" clip-rule="evenodd" fill="#B3B3B3" points="1328.6,912.5 1331.4,868.3 1337.9,915.9 		"/>
		<polygon fill-rule="evenodd" clip-rule="evenodd" fill="#808080" points="1331.4,868.3 1339.1,873.2 1337.9,915.9 		"/>
		<polygon fill-rule="evenodd" clip-rule="evenodd" fill="#666666" points="1331.4,868.3 1336.4,824.2 1339.1,873.2 		"/>
		<polygon fill-rule="evenodd" clip-rule="evenodd" fill="#808080" points="1291.9,954.1 1283,932.3 1284.2,954.4 		"/>
		<polygon fill-rule="evenodd" clip-rule="evenodd" fill="#CCCCCC" points="1284.2,954.4 1262.3,910.6 1283.4,939.9 		"/>
		<polygon fill-rule="evenodd" clip-rule="evenodd" fill="#B3B3B3" points="1262.3,910.6 1259.2,876.6 1276.9,930.9 		"/>
		<polygon fill-rule="evenodd" clip-rule="evenodd" fill="#E6E6E6" points="1260.5,891.5 1248.4,860.9 1259.2,876.6 		"/>
		<polygon fill-rule="evenodd" clip-rule="evenodd" fill="#999999" points="1284.2,954.4 1257.4,928.9 1259,928.4 1277.1,940.2 		
			"/>
		<polygon fill-rule="evenodd" clip-rule="evenodd" fill="#CCCCCC" points="1252.1,924 1235.2,936 1259,928.4 		"/>
		<polygon fill-rule="evenodd" clip-rule="evenodd" fill="#808080" points="1326.8,955.1 1333,933 1359,905.8 		"/>
		<polygon fill-rule="evenodd" clip-rule="evenodd" fill="#666666" points="1359,905.8 1384,914.7 1354.1,913.1 		"/>
	</g>
</g>
</svg>
