<?xml version="1.0" standalone="no"?>
<!DOCTYPE svg PUBLIC "-//W3C//DTD SVG 20010904//EN"
 "http://www.w3.org/TR/2001/REC-SVG-20010904/DTD/svg10.dtd">
<svg version="1.0" xmlns="http://www.w3.org/2000/svg"
 width="111.000000pt" height="111.000000pt" viewBox="0 0 111.000000 111.000000"
 preserveAspectRatio="xMidYMid meet">
<metadata>
Created by potrace 1.14, written by Peter Selinger 2001-2017
</metadata>
<g transform="translate(0.000000,111.000000) scale(0.100000,-0.100000)"
fill="#000000" stroke="none">
<path d="M335 1017 c-33 -24 -98 -70 -145 -102 -130 -90 -120 -64 -121 -314
-1 -293 -1 -292 24 -318 12 -12 69 -56 127 -97 58 -41 110 -80 117 -85 7 -6
15 -11 18 -11 4 0 13 -7 21 -15 9 -8 24 -15 35 -15 21 0 87 38 107 62 9 12 12
113 10 444 l-3 429 -49 33 c-26 17 -56 32 -65 32 -9 0 -44 -19 -76 -43z"/>
<path d="M674 919 c-3 -6 -5 -113 -4 -237 1 -125 2 -276 1 -337 -1 -120 4
-155 20 -155 12 0 144 85 167 106 9 10 12 76 12 262 l0 250 -71 51 c-81 59
-115 76 -125 60z"/>
<path d="M977 753 c-4 -3 -7 -96 -7 -205 0 -179 2 -198 17 -198 24 0 83 42 84
60 0 8 1 78 2 154 l0 140 -33 28 c-34 28 -51 34 -63 21z"/>
</g>
</svg>
